PathFileType	4	(X/Y/Z)	E:\Qualisys_Data\Carbon_Farble_Plate\Data\Amateur_Runner\S2\T2\S2T2V12_c3d.trc
DataRate	CameraRate	NumFrames	NumMarkers	Units	OrigDataRate	OrigDataStartFrame	OrigNumFrames
200.000000	200.000000	4	39	mm	200.000000	82	331
Frame#	Time	LSHO			RSHO			LICST			RICST			LASIS			LHEEL			RASIS			LTROC			RTROC			SACR			LTH1			LSK4			LTH2			LTH3			RHM5			LSK2			LTH4			RTH1			LTOE			RTH2			RTH3			RTH4			LLEP			RLEP			LSK1			LSK3			RSK1			LHM5			RSK2			LFT1			RSK3			RSK4			LLME			RLME			RTOE			RHEEL			RFT1			RFT2			LFT2			
		X1	Y1	Z1	X2	Y2	Z2	X3	Y3	Z3	X4	Y4	Z4	X5	Y5	Z5	X6	Y6	Z6	X7	Y7	Z7	X8	Y8	Z8	X9	Y9	Z9	X10	Y10	Z10	X11	Y11	Z11	X12	Y12	Z12	X13	Y13	Z13	X14	Y14	Z14	X15	Y15	Z15	X16	Y16	Z16	X17	Y17	Z17	X18	Y18	Z18	X19	Y19	Z19	X20	Y20	Z20	X21	Y21	Z21	X22	Y22	Z22	X23	Y23	Z23	X24	Y24	Z24	X25	Y25	Z25	X26	Y26	Z26	X27	Y27	Z27	X28	Y28	Z28	X29	Y29	Z29	X30	Y30	Z30	X31	Y31	Z31	X32	Y32	Z32	X33	Y33	Z33	X34	Y34	Z34	X35	Y35	Z35	X36	Y36	Z36	X37	Y37	Z37	X38	Y38	Z38	X39	Y39	Z39	

83	0.41	-1032.409545898438	1523.030029296875	-504.5149841308594	-943.1967163085938	1499.824340820312	-216.9746246337891	-1012.643493652344	1053.119384765625	-504.5342407226562	-972.396484375	1041.729125976562	-209.0313568115234	-952.2206420898438	1005.727722167969	-489.5602416992188	-892.4669799804688	111.2348937988281	-378.6324768066406	-919.9396362304688	991.2600708007812	-234.7783966064453	-1071.310791015625	922.9531860351562	-507.3809814453125	-1076.097412109375	954.5188598632812	-190.0358581542969	-1088.821411132812	1088.602905273438	-342.0939331054688	-891.7630004882812	715.6400756835938	-518.6384887695312	-914.686767578125	321.3091735839844	-480.1471557617188	-973.1880493164062	692.22216796875	-513.1561889648438	-862.140869140625	619.7285766601562	-494.1333312988281	-1499.823486328125	189.4754486083984	-227.2501373291016	-923.1514282226562	419.0446166992188	-494.8043823242188	-943.8368530273438	598.1973876953125	-485.9017333984375	-1029.848999023438	684.0125122070312	-202.8863372802734	-662.23095703125	186.2534637451172	-437.5852966308594	-1102.18701171875	710.0863647460938	-195.5666656494141	-1063.650634765625	589.5029296875	-213.8943481445312	-1138.658081054688	619.9286499023438	-213.4358215332031	-889.8171997070312	554.3023071289062	-483.1364135742188	-1136.35400390625	568.149169921875	-209.2976684570312	-845.674560546875	426.5898132324219	-487.8418884277344	-836.1614379882812	327.8783569335938	-477.1117858886719	-1208.316772460938	466.9186706542969	-203.3860626220703	-714.9009399414062	142.6370239257812	-485.4649353027344	-1257.010620117188	530.3677978515625	-200.2245941162109	-870.080322265625	89.14911651611328	-359.2001037597656	-1288.897094726562	404.5213012695312	-208.6677093505859	-1334.556274414062	468.6754760742188	-211.5800018310547	-845.5440063476562	143.6121063232422	-448.1612854003906	-1463.005859375	317.8462829589844	-238.9151763916016	-1457.033935546875	125.1814575195312	-279.4485168457031	-1473.550537109375	374.4269409179688	-296.5222778320312	-1492.482666015625	354.2128295898438	-332.7586059570312	-1507.9921875	367.7407836914062	-279.8314514160156	-883.1485595703125	78.1053237915039	-411.1626586914062
84	0.415	-1016.907470703125	1520.67431640625	-505.1895446777344	-927.5896606445312	1498.07763671875	-217.8441772460938	-997.555419921875	1050.83544921875	-504.1441955566406	-957.406494140625	1039.956176757812	-209.2990875244141	-936.6590576171876	1003.538940429688	-489.4112548828125	-876.2859497070312	108.8891372680664	-376.5902404785156	-904.450439453125	989.961669921875	-234.1861572265625	-1056.371459960938	920.1296997070312	-506.3311767578125	-1060.092651367188	951.8718872070312	-189.9930267333984	-1073.391479492188	1086.34765625	-342.2026062011719	-876.4222412109375	712.4985961914062	-519.817626953125	-898.6299438476562	319.119140625	-478.7179870605469	-958.0808715820312	688.8759765625	-514.1607055664062	-846.9692993164062	616.7684326171875	-494.4780883789062	-1487.506469726562	195.2497406005859	-226.0517272949219	-907.5972290039062	416.3617553710938	-493.5093688964844	-928.7651977539062	595.5833129882812	-485.4302062988281	-1011.235961914062	681.6751708984375	-202.5907745361328	-646.4468994140625	185.5296630859375	-436.0499267578125	-1083.786376953125	707.0713500976562	-195.0512237548828	-1044.5673828125	586.4823608398438	-213.6385192871094	-1119.636108398438	615.9869384765625	-212.6977691650391	-874.3825073242188	551.7098999023438	-481.931396484375	-1116.804565429688	564.9175415039062	-208.4286956787109	-829.8690795898438	424.4246215820312	-486.3805847167969	-820.1123046875	325.9505310058594	-475.33740234375	-1190.338623046875	465.1059265136719	-202.8254241943359	-699.40478515625	141.1846771240234	-482.7879028320312	-1237.410766601562	529.7953491210938	-199.3177795410156	-853.4816284179688	87.34754943847656	-357.0314025878906	-1272.44091796875	404.8240661621094	-208.9774627685547	-1316.522338867188	470.3055419921875	-211.0471343994141	-829.2830200195312	141.8007965087891	-446.0709228515625	-1449.008911132812	322.8943786621094	-239.6879119873047	-1445.71728515625	130.4449920654297	-278.1055908203125	-1458.99072265625	379.1468505859375	-296.1246948242188	-1478.523315429688	359.7049255371094	-332.8934326171875	-1493.862060546875	373.6771545410156	-279.3569030761719	-866.3064575195312	75.75843811035156	-408.6411743164062
85	0.42	-1001.5732421875	1518.063720703125	-506.0968017578125	-912.2042846679688	1495.916381835938	-218.3952178955078	-982.4639892578124	1047.9970703125	-504.3358764648438	-942.1453857421876	1037.887939453125	-209.0602874755859	-921.650634765625	1001.307006835938	-489.4207763671875	-860.5469360351562	106.6418914794922	-373.8144836425781	-888.566650390625	988.2786254882812	-234.2381591796875	-1041.071899414062	917.3890991210938	-505.9225769042969	-1044.194213867188	948.2953491210938	-189.933349609375	-1058.021850585938	1083.757690429688	-341.9193420410156	-860.9618530273438	709.2279663085938	-520.499267578125	-883.4917602539062	316.5165405273438	-477.1459045410156	-942.7389526367188	685.41796875	-515.042236328125	-831.4591064453125	613.7113037109375	-494.3675842285156	-1475.085693359375	201.6038208007812	-225.3329315185547	-891.8375244140625	413.6968078613281	-492.5908203125	-913.6741943359376	592.2467041015625	-485.4898986816406	-992.1986083984376	679.0860595703125	-201.4953918457031	-631.3802490234375	184.2819519042969	-434.7318420410156	-1065.66748046875	703.3696899414062	-194.5554351806641	-1024.9912109375	583.5225830078125	-212.6694641113281	-1100.341796875	612.3145141601562	-212.0937957763672	-858.885498046875	549.2391967773438	-481.4733581542969	-1097.304443359375	561.1826782226562	-207.9618072509766	-814.295654296875	422.1586303710938	-484.8575134277344	-804.3580932617188	323.6295471191406	-473.5022277832031	-1171.983276367188	463.1973266601562	-202.6635437011719	-684.1519775390625	139.8154144287109	-481.2409057617188	-1217.030395507812	529.0548095703125	-198.9927673339844	-837.7507934570312	85.36270904541016	-354.6700134277344	-1255.99267578125	405.1128234863281	-208.5007781982422	-1298.175537109375	471.5570678710938	-210.9411010742188	-814.3382568359375	139.3689270019531	-443.6491088867188	-1433.9970703125	328.2877807617188	-239.1470489501953	-1434.47705078125	135.2813415527344	-277.3707275390625	-1444.338989257812	384.3111877441406	-296.3747863769531	-1464.087646484375	365.1681213378906	-332.9258422851562	-1478.994506835938	379.4752197265625	-279.2607727050781	-850.4500122070312	73.95948028564453	-406.1851196289062
86	0.425	-986.0997314453124	1515.102661132812	-506.8217468261719	-896.5218505859375	1493.742553710938	-219.1295776367188	-967.8148193359376	1045.587768554688	-503.8364868164062	-927.25341796875	1035.414306640625	-208.5483245849609	-906.4661865234376	998.8067016601562	-489.4495849609375	-846.0639038085938	104.0881195068359	-371.4980163574219	-873.309814453125	986.1324462890624	-234.0581359863281	-1025.740966796875	914.5850219726562	-505.4096069335938	-1028.09228515625	945.1815795898438	-189.7668609619141	-1042.711303710938	1080.622680664062	-341.4465942382812	-845.2376708984375	705.9778442382812	-521.0205688476562	-868.2127075195312	314.0054931640625	-475.9228210449219	-927.1204223632812	682.1953735351562	-515.8106689453125	-815.7752075195312	611.044189453125	-493.6371459960938	-1461.892456054688	207.1735076904297	-224.4492645263672	-876.3789672851562	411.3983154296875	-491.6509094238281	-897.6641845703125	589.6002807617188	-485.5069885253906	-974.580810546875	675.95703125	-202.1365509033203	-617.3126831054688	182.5325622558594	-433.1841735839844	-1047.39892578125	699.7025756835938	-193.9898376464844	-1005.21044921875	580.4736938476562	-212.1043243408203	-1081.241455078125	607.61083984375	-211.2997589111328	-843.4938354492188	546.8616943359375	-480.4535827636719	-1077.218994140625	557.28271484375	-207.1129760742188	-799.0850219726562	419.5029296875	-483.3357238769531	-789.4122314453125	320.6715698242188	-471.2891845703125	-1153.648559570312	460.5303955078125	-202.3665771484375	-670.2100830078125	137.2566223144531	-479.2999267578125	-1197.289672851562	527.6929931640625	-198.8159790039062	-822.902099609375	83.24293518066406	-351.4575805664062	-1238.978759765625	404.9002685546875	-208.3196716308594	-1279.244262695312	472.5455627441406	-210.6477355957031	-799.8583374023438	136.5227203369141	-441.4551086425781	-1419.091918945312	332.7247619628906	-239.9720764160156	-1422.807373046875	140.4537811279297	-276.6251220703125	-1426.16748046875	388.0153503417969	-294.163330078125	-1449.038818359375	370.5780944824219	-333.1515197753906	-1463.347290039062	384.9297180175781	-279.1253356933594	-835.9593505859375	70.9900131225586	-403.1515502929688
